<svg xmlns="http://www.w3.org/2000/svg" fill="none" class="w-10 h-10" viewBox="0 0 132 132"><path fill="currentColor" fill-rule="evenodd" d="M41.315 23.244a48.329 48.329 0 0 0-23.007-5.788.852.852 0 0 0-.851.852c0 8.325 2.095 16.16 5.787 23.007A48.33 48.33 0 0 0 .426 47.806a.852.852 0 0 0-.312 1.163A48.33 48.33 0 0 0 16.63 66 48.33 48.33 0 0 0 .114 83.03a.852.852 0 0 0 .312 1.164 48.328 48.328 0 0 0 22.818 6.491 48.328 48.328 0 0 0-5.787 23.007c0 .47.38.851.851.851 8.325 0 16.16-2.095 23.007-5.787a48.327 48.327 0 0 0 6.491 22.818.852.852 0 0 0 1.163.312A48.336 48.336 0 0 0 66 115.37a48.336 48.336 0 0 0 17.03 16.516.852.852 0 0 0 1.164-.312 48.327 48.327 0 0 0 6.491-22.818 48.328 48.328 0 0 0 23.007 5.787c.47 0 .851-.381.851-.851 0-8.325-2.095-16.16-5.787-23.007a48.326 48.326 0 0 0 22.818-6.491.852.852 0 0 0 .312-1.163A48.336 48.336 0 0 0 115.37 66a48.328 48.328 0 0 0 16.516-17.03.852.852 0 0 0-.312-1.164 48.327 48.327 0 0 0-22.818-6.491 48.33 48.33 0 0 0 5.787-23.007.851.851 0 0 0-.851-.852 48.327 48.327 0 0 0-23.007 5.788A48.328 48.328 0 0 0 84.194.426.852.852 0 0 0 83.03.114 48.33 48.33 0 0 0 66 16.63 48.33 48.33 0 0 0 48.97.114a.852.852 0 0 0-1.164.312 48.328 48.328 0 0 0-6.491 22.818ZM61.45 58.119a48.219 48.219 0 0 0-12.303-10.22 47.078 47.078 0 0 1-6.123-21.696A47.078 47.078 0 0 1 58.75 42.355a48.22 48.22 0 0 0 2.699 15.764Zm-2.611-18.844A48.794 48.794 0 0 0 43 24.197a46.604 46.604 0 0 1 5.858-22.171 46.605 46.605 0 0 1 16.159 16.271 48.795 48.795 0 0 0-6.178 20.978Zm1.757 6.556a46.556 46.556 0 0 0 4.407 16.447 46.552 46.552 0 0 0-4.407-16.447ZM45.832 60.596a46.556 46.556 0 0 1 16.445 4.406 46.551 46.551 0 0 1-16.445-4.406Zm-3.477-1.845A48.22 48.22 0 0 1 58.12 61.45a48.223 48.223 0 0 1-10.22-12.303 47.077 47.077 0 0 0-21.695-6.123A47.078 47.078 0 0 0 42.355 58.75Zm-18.158-15.75a48.793 48.793 0 0 0 15.078 15.838 48.794 48.794 0 0 0-20.978 6.178A46.605 46.605 0 0 1 2.026 48.858 46.605 46.605 0 0 1 24.196 43Zm.983-1.704a48.794 48.794 0 0 1 21.256 5.139 48.794 48.794 0 0 1-5.139-21.256 46.604 46.604 0 0 0-22.13-6.013 46.605 46.605 0 0 0 6.013 22.13ZM89 24.197a46.604 46.604 0 0 0-5.858-22.171 46.605 46.605 0 0 0-16.159 16.271 48.794 48.794 0 0 1 6.178 20.978A48.795 48.795 0 0 1 89 24.197ZM73.249 42.355a47.077 47.077 0 0 1 15.727-16.151A47.078 47.078 0 0 1 82.853 47.9 48.22 48.22 0 0 0 70.55 58.119a48.22 48.22 0 0 0 2.699-15.764Zm-6.252 19.923a46.55 46.55 0 0 0 4.407-16.447 46.556 46.556 0 0 0-4.407 16.447Zm4.548-20.38A48.219 48.219 0 0 0 66 56.9a48.223 48.223 0 0 0-5.545-15.001A47.078 47.078 0 0 1 66 20.048a47.077 47.077 0 0 1 5.545 21.85ZM90.703 25.18a46.605 46.605 0 0 1 22.129-6.013 46.601 46.601 0 0 1-6.012 22.13 48.793 48.793 0 0 0-21.256 5.139 48.794 48.794 0 0 0 5.139-21.256Zm15.093 17.844A47.077 47.077 0 0 0 84.1 49.147 48.223 48.223 0 0 1 73.881 61.45a48.22 48.22 0 0 1 15.764-2.699 47.074 47.074 0 0 0 16.151-15.727ZM69.723 65.002a46.552 46.552 0 0 0 16.445-4.406 46.552 46.552 0 0 0-16.445 4.406Zm20.379-4.547A47.078 47.078 0 0 1 111.953 66a47.079 47.079 0 0 1-21.851 5.545A48.221 48.221 0 0 0 75.1 66a48.221 48.221 0 0 0 15.002-5.545Zm-20.38 6.542a46.554 46.554 0 0 0 16.447 4.407 46.553 46.553 0 0 0-16.447-4.407Zm19.923 6.252a47.074 47.074 0 0 1 16.151 15.727A47.078 47.078 0 0 1 84.1 82.853 48.219 48.219 0 0 0 73.881 70.55a48.22 48.22 0 0 0 15.764 2.699Zm18.158 15.75a48.79 48.79 0 0 0-15.077-15.838 48.797 48.797 0 0 0 20.977-6.178 46.601 46.601 0 0 1 16.271 16.159A46.602 46.602 0 0 1 107.803 89Zm-.983 1.704a48.793 48.793 0 0 1-21.256-5.139 48.795 48.795 0 0 1 5.139 21.256 46.601 46.601 0 0 0 22.129 6.012 46.601 46.601 0 0 0-6.012-22.13Zm-17.844 15.093A47.076 47.076 0 0 0 82.853 84.1 48.22 48.22 0 0 1 70.55 73.881a48.223 48.223 0 0 1 2.699 15.764 47.075 47.075 0 0 0 15.727 16.151ZM66.998 69.722a46.551 46.551 0 0 0 4.406 16.447 46.554 46.554 0 0 0-4.406-16.447Zm4.547 20.38A47.078 47.078 0 0 1 66 111.952a47.079 47.079 0 0 1-5.545-21.851A48.223 48.223 0 0 0 66 75.1a48.218 48.218 0 0 0 5.545 15.001Zm-10.95-3.933a46.551 46.551 0 0 1 4.408-16.447 46.553 46.553 0 0 1-4.407 16.447Zm-1.844 3.476a47.075 47.075 0 0 1-15.727 16.151A47.077 47.077 0 0 1 49.147 84.1 48.223 48.223 0 0 0 61.45 73.881a48.221 48.221 0 0 0-2.699 15.764Zm-15.75 18.158a48.789 48.789 0 0 0 15.838-15.078 48.796 48.796 0 0 0 6.178 20.978 46.6 46.6 0 0 1-16.159 16.271A46.605 46.605 0 0 1 43 107.803Zm-1.704-.983a48.794 48.794 0 0 1 5.139-21.256 48.796 48.796 0 0 1-21.256 5.139 46.605 46.605 0 0 0-6.012 22.129 46.6 46.6 0 0 0 22.13-6.012ZM26.204 88.976A47.078 47.078 0 0 0 47.9 82.853 48.219 48.219 0 0 1 58.119 70.55a48.223 48.223 0 0 1-15.764 2.699 47.078 47.078 0 0 0-16.151 15.727Zm15.694-17.431A47.078 47.078 0 0 1 20.048 66a47.077 47.077 0 0 1 21.85-5.545A48.221 48.221 0 0 0 56.9 66a48.221 48.221 0 0 0-15.002 5.545Zm3.933-.14a46.552 46.552 0 0 1 16.447-4.408 46.552 46.552 0 0 1-16.447 4.407Zm-6.556 1.756A48.794 48.794 0 0 0 24.197 89a46.605 46.605 0 0 1-22.171-5.858 46.605 46.605 0 0 1 16.271-16.159 48.794 48.794 0 0 0 20.978 6.178ZM73.16 92.725A48.789 48.789 0 0 0 89 107.803a46.605 46.605 0 0 1-5.858 22.171 46.6 46.6 0 0 1-16.159-16.271 48.796 48.796 0 0 0 6.178-20.978ZM92.725 58.84A48.789 48.789 0 0 0 107.803 43a46.605 46.605 0 0 1 22.171 5.858 46.6 46.6 0 0 1-16.271 16.159 48.794 48.794 0 0 0-20.978-6.178Zm-11.96-7.604a46.553 46.553 0 0 0-12.04 12.04 46.553 46.553 0 0 0 12.04-12.04Zm0 29.53a46.554 46.554 0 0 0-12.04-12.04 46.55 46.55 0 0 0 12.04 12.04Zm-17.49-12.04a46.552 46.552 0 0 1-12.04 12.04 46.554 46.554 0 0 1 12.04-12.04Zm0-5.45a46.553 46.553 0 0 1-12.04-12.04 46.553 46.553 0 0 1 12.04 12.04Z" clip-rule="evenodd"/><path fill="currentColor" fill-opacity=".2" fill-rule="evenodd" d="M41.315 23.244a48.329 48.329 0 0 0-23.007-5.788.852.852 0 0 0-.851.852c0 8.325 2.095 16.16 5.787 23.007A48.33 48.33 0 0 0 .426 47.806a.852.852 0 0 0-.312 1.163A48.33 48.33 0 0 0 16.63 66 48.33 48.33 0 0 0 .114 83.03a.852.852 0 0 0 .312 1.164 48.328 48.328 0 0 0 22.818 6.491 48.328 48.328 0 0 0-5.787 23.007c0 .47.38.851.851.851 8.325 0 16.16-2.095 23.007-5.787a48.327 48.327 0 0 0 6.491 22.818.852.852 0 0 0 1.163.312A48.336 48.336 0 0 0 66 115.37a48.336 48.336 0 0 0 17.03 16.516.852.852 0 0 0 1.164-.312 48.327 48.327 0 0 0 6.491-22.818 48.328 48.328 0 0 0 23.007 5.787c.47 0 .851-.381.851-.851 0-8.325-2.095-16.16-5.787-23.007a48.326 48.326 0 0 0 22.818-6.491.852.852 0 0 0 .312-1.163A48.336 48.336 0 0 0 115.37 66a48.328 48.328 0 0 0 16.516-17.03.852.852 0 0 0-.312-1.164 48.327 48.327 0 0 0-22.818-6.491 48.33 48.33 0 0 0 5.787-23.007.851.851 0 0 0-.851-.852 48.327 48.327 0 0 0-23.007 5.788A48.328 48.328 0 0 0 84.194.426.852.852 0 0 0 83.03.114 48.33 48.33 0 0 0 66 16.63 48.33 48.33 0 0 0 48.97.114a.852.852 0 0 0-1.164.312 48.328 48.328 0 0 0-6.491 22.818ZM61.45 58.119a48.219 48.219 0 0 0-12.303-10.22 47.078 47.078 0 0 1-6.123-21.696A47.078 47.078 0 0 1 58.75 42.355a48.22 48.22 0 0 0 2.699 15.764Zm-2.611-18.844A48.794 48.794 0 0 0 43 24.197a46.604 46.604 0 0 1 5.858-22.171 46.605 46.605 0 0 1 16.159 16.271 48.795 48.795 0 0 0-6.178 20.978Zm1.757 6.556a46.556 46.556 0 0 0 4.407 16.447 46.552 46.552 0 0 0-4.407-16.447ZM45.832 60.596a46.556 46.556 0 0 1 16.445 4.406 46.551 46.551 0 0 1-16.445-4.406Zm-3.477-1.845A48.22 48.22 0 0 1 58.12 61.45a48.223 48.223 0 0 1-10.22-12.303 47.077 47.077 0 0 0-21.695-6.123A47.078 47.078 0 0 0 42.355 58.75Zm-18.158-15.75a48.793 48.793 0 0 0 15.078 15.838 48.794 48.794 0 0 0-20.978 6.178A46.605 46.605 0 0 1 2.026 48.858 46.605 46.605 0 0 1 24.196 43Zm.983-1.704a48.794 48.794 0 0 1 21.256 5.139 48.794 48.794 0 0 1-5.139-21.256 46.604 46.604 0 0 0-22.13-6.013 46.605 46.605 0 0 0 6.013 22.13ZM89 24.197a46.604 46.604 0 0 0-5.858-22.171 46.605 46.605 0 0 0-16.159 16.271 48.794 48.794 0 0 1 6.178 20.978A48.795 48.795 0 0 1 89 24.197ZM73.249 42.355a47.077 47.077 0 0 1 15.727-16.151A47.078 47.078 0 0 1 82.853 47.9 48.22 48.22 0 0 0 70.55 58.119a48.22 48.22 0 0 0 2.699-15.764Zm-6.252 19.923a46.55 46.55 0 0 0 4.407-16.447 46.556 46.556 0 0 0-4.407 16.447Zm4.548-20.38A48.219 48.219 0 0 0 66 56.9a48.223 48.223 0 0 0-5.545-15.001A47.078 47.078 0 0 1 66 20.048a47.077 47.077 0 0 1 5.545 21.85ZM90.703 25.18a46.605 46.605 0 0 1 22.129-6.013 46.601 46.601 0 0 1-6.012 22.13 48.793 48.793 0 0 0-21.256 5.139 48.794 48.794 0 0 0 5.139-21.256Zm15.093 17.844A47.077 47.077 0 0 0 84.1 49.147 48.223 48.223 0 0 1 73.881 61.45a48.22 48.22 0 0 1 15.764-2.699 47.074 47.074 0 0 0 16.151-15.727ZM69.723 65.002a46.552 46.552 0 0 0 16.445-4.406 46.552 46.552 0 0 0-16.445 4.406Zm20.379-4.547A47.078 47.078 0 0 1 111.953 66a47.079 47.079 0 0 1-21.851 5.545A48.221 48.221 0 0 0 75.1 66a48.221 48.221 0 0 0 15.002-5.545Zm-20.38 6.542a46.554 46.554 0 0 0 16.447 4.407 46.553 46.553 0 0 0-16.447-4.407Zm19.923 6.252a47.074 47.074 0 0 1 16.151 15.727A47.078 47.078 0 0 1 84.1 82.853 48.219 48.219 0 0 0 73.881 70.55a48.22 48.22 0 0 0 15.764 2.699Zm18.158 15.75a48.79 48.79 0 0 0-15.077-15.838 48.797 48.797 0 0 0 20.977-6.178 46.601 46.601 0 0 1 16.271 16.159A46.602 46.602 0 0 1 107.803 89Zm-.983 1.704a48.793 48.793 0 0 1-21.256-5.139 48.795 48.795 0 0 1 5.139 21.256 46.601 46.601 0 0 0 22.129 6.012 46.601 46.601 0 0 0-6.012-22.13Zm-17.844 15.093A47.076 47.076 0 0 0 82.853 84.1 48.22 48.22 0 0 1 70.55 73.881a48.223 48.223 0 0 1 2.699 15.764 47.075 47.075 0 0 0 15.727 16.151ZM66.998 69.722a46.551 46.551 0 0 0 4.406 16.447 46.554 46.554 0 0 0-4.406-16.447Zm4.547 20.38A47.078 47.078 0 0 1 66 111.952a47.079 47.079 0 0 1-5.545-21.851A48.223 48.223 0 0 0 66 75.1a48.218 48.218 0 0 0 5.545 15.001Zm-10.95-3.933a46.551 46.551 0 0 1 4.408-16.447 46.553 46.553 0 0 1-4.407 16.447Zm-1.844 3.476a47.075 47.075 0 0 1-15.727 16.151A47.077 47.077 0 0 1 49.147 84.1 48.223 48.223 0 0 0 61.45 73.881a48.221 48.221 0 0 0-2.699 15.764Zm-15.75 18.158a48.789 48.789 0 0 0 15.838-15.078 48.796 48.796 0 0 0 6.178 20.978 46.6 46.6 0 0 1-16.159 16.271A46.605 46.605 0 0 1 43 107.803Zm-1.704-.983a48.794 48.794 0 0 1 5.139-21.256 48.796 48.796 0 0 1-21.256 5.139 46.605 46.605 0 0 0-6.012 22.129 46.6 46.6 0 0 0 22.13-6.012ZM26.204 88.976A47.078 47.078 0 0 0 47.9 82.853 48.219 48.219 0 0 1 58.119 70.55a48.223 48.223 0 0 1-15.764 2.699 47.078 47.078 0 0 0-16.151 15.727Zm15.694-17.431A47.078 47.078 0 0 1 20.048 66a47.077 47.077 0 0 1 21.85-5.545A48.221 48.221 0 0 0 56.9 66a48.221 48.221 0 0 0-15.002 5.545Zm3.933-.14a46.552 46.552 0 0 1 16.447-4.408 46.552 46.552 0 0 1-16.447 4.407Zm-6.556 1.756A48.794 48.794 0 0 0 24.197 89a46.605 46.605 0 0 1-22.171-5.858 46.605 46.605 0 0 1 16.271-16.159 48.794 48.794 0 0 0 20.978 6.178ZM73.16 92.725A48.789 48.789 0 0 0 89 107.803a46.605 46.605 0 0 1-5.858 22.171 46.6 46.6 0 0 1-16.159-16.271 48.796 48.796 0 0 0 6.178-20.978ZM92.725 58.84A48.789 48.789 0 0 0 107.803 43a46.605 46.605 0 0 1 22.171 5.858 46.6 46.6 0 0 1-16.271 16.159 48.794 48.794 0 0 0-20.978-6.178Zm-11.96-7.604a46.553 46.553 0 0 0-12.04 12.04 46.553 46.553 0 0 0 12.04-12.04Zm0 29.53a46.554 46.554 0 0 0-12.04-12.04 46.55 46.55 0 0 0 12.04 12.04Zm-17.49-12.04a46.552 46.552 0 0 1-12.04 12.04 46.554 46.554 0 0 1 12.04-12.04Zm0-5.45a46.553 46.553 0 0 1-12.04-12.04 46.553 46.553 0 0 1 12.04 12.04Z" clip-rule="evenodd"/></svg>